<?xml version="1.0" encoding="iso-8859-1"?>
<!-- Generator: Adobe Illustrator 19.0.0, SVG Export Plug-In . SVG Version: 6.00 Build 0)  -->
<svg version="1.1" id="Layer_1" xmlns="http://www.w3.org/2000/svg" xmlns:xlink="http://www.w3.org/1999/xlink" x="0px" y="0px"
	 viewBox="0 0 512.004 512.004" style="enable-background:new 0 0 512.004 512.004;" xml:space="preserve">
<g>
	<g>
		<path d="M462.526,435.202h36.676c7.074,0,12.8-5.726,12.8-12.8s-5.726-12.8-12.8-12.8H277.54l-87.74-241.058
			c8.585,0.939,18.005,3.627,23.987,6.357c6.383,2.91,13.372,2.995,19.507,0.768c6.153-2.244,11.452-6.81,14.421-13.193
			c4.446-9.344,15.488-24.9,24.909-28.331c9.421-3.43,27.878,1.391,37.385,5.734c6.246,2.85,13.252,3.029,19.465,0.768
			c3.123-1.135,6.05-2.893,8.585-5.231c7.578-6.997,10.266-17.843,6.733-27.537c-27.691-76.109-119.526-113.331-208.7-86.904
			l-4.565-12.552c-2.415-6.647-9.754-10.069-16.41-7.646c-6.647,2.423-10.069,9.754-7.646,16.41l4.565,12.552
			C26.737,66.81-19.684,154.353,8.015,230.462c3.541,9.728,12.595,16.367,22.938,16.819c3.422,0.145,6.767-0.393,9.865-1.519
			c6.263-2.278,11.52-6.963,14.447-13.244c4.446-9.344,15.488-24.9,24.909-28.331c9.421-3.43,27.878,1.391,37.385,5.734
			c6.391,2.91,13.372,2.995,19.507,0.768c6.153-2.244,11.452-6.81,14.421-13.193c2.799-5.879,8.277-13.969,14.251-20.198
			l84.557,232.303h-67.098L20.081,296.681c-5.751-4.002-13.798-2.603-17.801,3.234c-4.028,5.811-2.577,13.79,3.251,17.809
			l132.702,91.878H76.802c-3.797,0-7.398,1.69-9.822,4.599l-64,76.8c-4.523,5.436-3.797,13.508,1.621,18.039
			c5.453,4.497,13.525,3.814,18.022-1.638l60.177-72.201h176.811l18.637,51.2h-9.446c-7.074,0-12.8,5.726-12.8,12.8
			c0,7.074,5.726,12.8,12.8,12.8h51.2c7.074,0,12.8-5.726,12.8-12.8c0-7.074-5.726-12.8-12.8-12.8h-14.515l-18.637-51.2h142.345
			l60.177,72.201c2.534,3.038,6.178,4.599,9.83,4.599c2.901,0,5.803-0.973,8.201-2.961c5.427-4.523,6.153-12.604,1.621-18.039
			L462.526,435.202z M167.657,145.111c-24.055,8.755-39.356,41.566-39.356,41.566s-32.811-15.3-56.866-6.545
			c-24.055,8.755-39.356,41.566-39.356,41.566C7.895,155.275,52.917,77.903,132.627,48.89
			c79.718-29.013,163.934,1.314,188.117,67.746c0,0-32.811-15.3-56.866-6.545c-24.055,8.755-39.356,41.566-39.356,41.566
			S191.712,136.356,167.657,145.111z"/>
	</g>
</g>
<g>
</g>
<g>
</g>
<g>
</g>
<g>
</g>
<g>
</g>
<g>
</g>
<g>
</g>
<g>
</g>
<g>
</g>
<g>
</g>
<g>
</g>
<g>
</g>
<g>
</g>
<g>
</g>
<g>
</g>
</svg>
