<?xml version="1.0" encoding="utf-8"?>
<!-- Generator: Adobe Illustrator 21.1.0, SVG Export Plug-In . SVG Version: 6.00 Build 0)  -->
<svg version="1.1" id="Calque_1" xmlns="http://www.w3.org/2000/svg" xmlns:xlink="http://www.w3.org/1999/xlink" x="0px" y="0px"
	 viewBox="0 0 432 432" style="enable-background:new 0 0 432 432;" xml:space="preserve">
<style type="text/css">
	.st0{fill:#6E3C3F;}
	.st1{fill:#E3635C;}
	.st2{fill:#343434;}
	.st3{fill:#B1C369;}
	.st4{fill:#A490C4;}
	.st5{fill:#A2C1DB;}
	.st6{fill:#AFB67B;}
	.st7{fill:#4F4747;}
	.st8{fill:#AA6555;}
	.st9{fill:#93C6E3;}
	.st10{fill:#9C3A47;}
	.st11{fill:#52B5C3;}
	.st12{fill:#4B6C2A;}
	.st13{fill:#F4A38D;}
	.st14{fill:#6A8E2D;}
	.st15{fill:#EE7A9F;}
	.st16{fill:#F7DA6A;}
	.st17{fill:#E2991A;}
	.st18{fill:#A7B7BE;}
	.st19{fill:#E8D8CA;}
	.st20{fill:#A1A499;}
	.st21{fill:#C42725;}
	.st22{fill:#DBDC50;}
	.st23{fill:#020203;}
	.st24{fill:#92AA3C;}
	.st25{fill:#DFB87F;}
	.st26{fill:#7E4E1C;}
	.st27{fill:#BBCC53;}
	.st28{fill:#BA5C78;}
	.st29{fill:#85924F;}
	.st30{fill:#7C1142;}
	.st31{fill:#3B322E;}
	.st32{fill:#3B6C51;}
	.st33{fill:#C1292E;}
	.st34{fill:#CDCCCC;}
	.st35{fill:#886649;}
	.st36{fill:#F9B03D;}
	.st37{fill:#7D8C5B;}
	.st38{fill:#0D341E;}
	.st39{fill:#4D8F53;}
	.st40{fill:#1B1B1B;}
	.st41{fill:#F39323;}
	.st42{fill:#E7E6E6;}
	.st43{fill:#9A908B;}
	.st44{fill:#548981;}
	.st45{fill:#89525A;}
	.st46{fill:#AB9AB1;}
	.st47{fill:#5E676E;}
	.st48{fill:#DDDBCA;}
	.st49{fill:#56463E;}
	.st50{fill:#457885;}
	.st51{fill:#FFFFFF;}
	.st52{fill:#E69678;}
	.st53{fill:#A5AB9B;}
	.st54{fill:#855354;}
	.st55{fill:#DE8F6E;}
	.st56{fill:#C19D63;}
	.st57{fill:#837F62;}
	.st58{fill:#7D8769;}
	.st59{fill:#39466A;}
	.st60{fill:#4E4D4D;}
	.st61{fill:#673E44;}
	.st62{fill:#CEB283;}
	.st63{fill:#8890A4;}
	.st64{fill:#99B8B3;}
	.st65{fill:#A0747A;}
	.st66{fill:#BB839E;}
	.st67{fill:#E5DA9B;}
	.st68{fill:#BA9BC9;}
	.st69{fill:#8CACB5;}
	.st70{fill:#746458;}
	.st71{fill:#34354B;}
	.st72{fill:#6A8188;}
	.st73{fill:#B4B4B4;}
	.st74{fill:#97CB9E;}
	.st75{fill:#EE7896;}
	.st76{fill:#785F63;}
	.st77{fill:#E4A87C;}
	.st78{fill:#98D5E8;}
	.st79{fill:#CB6083;}
	.st80{fill:#9A9999;}
	.st81{fill:#C49A6C;}
	.st82{fill:#EC96AB;}
	.st83{fill:#ED87AB;}
	.st84{fill:#E2B471;}
	.st85{fill:#59B465;}
	.st86{fill:#4C996E;}
	.st87{fill:#A84F6B;}
	.st88{fill:#6BC4CD;}
	.st89{fill:#D6809C;}
	.st90{fill:#9DD0B3;}
	.st91{fill:#F3AA9A;}
	.st92{fill:#F29292;}
	.st93{fill:#BBBBBB;}
	.st94{fill:#5B5242;}
	.st95{fill:#8CCDC6;}
	.st96{fill:#EAC892;}
	.st97{fill:#F4B0CC;}
	.st98{fill:#7A6350;}
	.st99{fill:#9FC64B;}
	.st100{fill:#A68C6D;}
	.st101{fill:#F1D3D4;}
	.st102{fill:#BE8BBE;}
	.st103{fill:#F49523;}
	.st104{fill:#789835;}
	.st105{fill:#8FA369;}
	.st106{fill:#B17081;}
	.st107{fill:#E1B63D;}
	.st108{fill:#B05274;}
	.st109{fill:#CA9256;}
	.st110{fill:#A9A9AA;}
	.st111{fill:#BE202E;}
	.st112{fill-rule:evenodd;clip-rule:evenodd;fill:#A9A9AA;}
	.st113{fill:#89657B;}
	.st114{fill:#7F95B7;}
	.st115{fill:#9F9EC6;}
	.st116{fill:#7F6178;}
	.st117{fill:#6D8999;}
	.st118{fill:#A0C07E;}
	.st119{fill:#AA779F;}
	.st120{fill:#FBC063;}
	.st121{fill:#80A0C2;}
	.st122{fill:#CFAC75;}
	.st123{fill:#CD94C2;}
	.st124{fill:#AAB6DE;}
	.st125{fill:#CCAE99;}
	.st126{fill:#86B69F;}
	.st127{fill:#555D57;}
	.st128{fill:#86C1BB;}
	.st129{fill:#CA856C;}
	.st130{fill:#A4AA6D;}
	.st131{fill:#EAB978;}
	.st132{fill:#C091A7;}
	.st133{fill:#7E9DAD;}
	.st134{fill:#E5B1C8;}
	.st135{fill:#B9AEA3;}
	.st136{fill:#627F99;}
	.st137{fill:#E6A9AB;}
	.st138{fill:#913E41;}
	.st139{fill:#B46269;}
	.st140{fill:#C69C6C;}
	.st141{fill:#ED6D78;}
	.st142{fill:#C09047;}
	.st143{fill:#AE6C7B;}
	.st144{fill:#918FB2;}
	.st145{fill:#67816D;}
	.st146{fill:#B3B1A2;}
	.st147{fill:#A23A43;}
	.st148{fill:#6A907C;}
	.st149{fill:#B09294;}
	.st150{fill:#7B484D;}
	.st151{fill:#B78B5E;}
	.st152{fill:#DB7D82;}
	.st153{fill:#781611;}
	.st154{fill:#D38F8F;}
	.st155{fill:#965656;}
	.st156{fill:#9AA4B4;}
	.st157{fill:#754D24;}
	.st158{fill:#C8B7A7;}
	.st159{fill:#B4363B;}
	.st160{fill:#C77272;}
	.st161{fill:#91AF82;}
	.st162{fill:#C69462;}
	.st163{fill:#ED6C5B;}
	.st164{fill:#F3C186;}
	.st165{fill:#F3957D;}
	.st166{fill:#D1BBBC;}
</style>
<g>
	<g>
		<path class="st2" d="M192.1,139.9c1,0.6,2,0.8,3,1c0.3,0,0.7-0.3,1-0.5c1.8-1.8,3.7-3.6,5.5-5.5c0.2-0.2,0.4-0.4,0.6-0.6
			c2.5-2.5,6.1-2.5,8.6,0c1.4,1.4,2.9,2.9,4.3,4.3c2.2,2.2,2.5,4.9,0.9,7.6c-0.1,0.2-0.2,0.4-0.4,0.7c0.4,0.2,0.7,0.4,1.1,0.5
			c3.9,1.2,7.9,2.4,11.8,3.5c3.8,1.1,7.5,2.2,11.3,3.4c0.7,0.2,1.2,0.1,1.7-0.4c2.4-2.5,4.7-5,7.1-7.4c1.4-1.5,2.8-3,4.2-4.4
			c4.5-4.6,9-9.3,13.6-13.9c5.2-5.1,10.6-9.9,16.5-14.1c5.5-3.8,11.2-7.1,17.5-9.5c3.5-1.3,7.1-2.4,10.8-2.7
			c2.1-0.2,4.2-0.2,6.3,0.4c3.3,0.9,5.3,3.1,6,6.4c0.5,2,0.5,4,0.3,6c-0.5,4.9-2,9.4-4,13.9c-3.1,6.9-7.1,13.1-11.8,19
			c-2.8,3.5-5.8,6.9-8.9,10c-2.4,2.4-4.7,4.8-7.1,7.2c-3.6,3.5-7.3,7-11,10.5c-2,1.9-4.1,3.9-6.1,5.8c-1,1-2,2-3.1,2.9
			c-0.7,0.6-0.8,1.2-0.5,2c0.7,2.2,1.4,4.5,2,6.8c1.5,5.1,3.1,10.2,4.6,15.3c0.1,0.4,0.3,0.9,0.4,1.3c0.2,0.7,0.4,0.7,1,0.4
			c0.7-0.3,1.3-0.7,2.1-0.9c2-0.5,3.8,0,5.3,1.4c1.7,1.6,3.3,3.2,4.9,4.9c2,2.2,2,5.3,0.2,7.6c-0.2,0.3-0.5,0.6-0.8,0.9
			c-1.8,1.9-3.7,3.7-5.6,5.5c-0.7,0.6-1,1.2-0.6,2.1c0.2,0.4,0.3,0.9,0.4,1.4c0.2,0.6,0.4,0.7,1,0.5c0.3-0.1,0.6-0.3,0.9-0.4
			c2.3-0.7,4.3-0.2,6,1.4c1.6,1.5,3.2,3,4.6,4.6c2.3,2.5,2.3,5.9-0.1,8.4c-1.8,1.8-3.6,3.6-5.4,5.4c-0.6,0.6-0.7,1.1-0.5,1.9
			c2.5,8.2,5,16.4,7.4,24.7c0.8,2.8,0.3,5.3-1.9,7.4c-3,3-5.9,6-8.9,8.9c-1.9,1.9-4.8,2.1-7,0.6c-0.8-0.5-1.3-1.3-1.7-2.1
			c-2.3-4.1-4.6-8.2-6.8-12.2c-6.1-10.9-12.2-21.8-18.3-32.8c-1.6-2.9-3.3-5.9-4.9-8.8c-0.6-1.1-1.3-2.1-2.2-3
			c-4.6-4.6-9.2-9.2-13.8-13.8c-0.2-0.2-0.3-0.3-0.5-0.5c-0.5-0.5-0.7-0.5-1.2,0c-1.4,1.3-2.8,2.6-4.2,3.9
			c-4.7,4.3-9.4,8.6-14.1,12.9c-8.8,7.8-17.8,15.4-27.1,22.5c-0.6,0.5-0.8,0.9-0.7,1.7c0.2,2.3,0.4,4.7,0.6,7c0.3,3.7,0.7,7.3,1,11
			c0.4,3.9,0.7,7.8,1.1,11.7c0.3,3.8,0.7,7.5,1,11.3c0.2,2.7-0.5,5-2.5,6.9c-1.3,1.2-2.5,2.5-3.8,3.8c-2.9,2.8-7.1,2.1-8.8-1.5
			c-3.2-6.7-6.4-13.4-9.5-20.1c-1.5-3.1-3-6.2-4.5-9.4c-0.7-1.5-2-2.4-3.1-3.5c-0.3-0.3-0.7-0.2-1.1-0.1c-0.8,0.2-1.6,0.5-2.5,0.6
			c-1.5,0.3-3.1,0.4-4.6,0c-3.4-0.8-5.5-3.8-5.6-7.1c-0.1-1.8,0.3-3.5,0.8-5.2c0.2-0.8,0.2-1.3-0.5-1.8c-0.1-0.1-0.1-0.1-0.2-0.2
			c-1.3-1.5-2.9-2.5-4.7-3.3c-4.4-2-8.8-4.2-13.2-6.2c-4.7-2.3-9.5-4.5-14.3-6.7c-1.3-0.6-2.4-1.4-2.9-2.7c-0.9-2.2-0.6-4.2,0.9-5.9
			c1.5-1.6,3-3.2,4.6-4.6c1.6-1.5,3.5-2.2,5.7-2c3.7,0.3,7.3,0.6,11,1c4.4,0.4,8.7,0.8,13.1,1.2c5.9,0.5,11.7,1,17.6,1.6
			c0.7,0.1,1.1-0.1,1.6-0.7c4.7-5.8,9.3-11.7,14.1-17.4c4.6-5.4,9.3-10.7,14.1-16c3.6-4,7.4-8,11-11.9c0.6-0.7,0.6-0.8-0.1-1.5
			c-3.6-3.6-7.2-7.2-10.8-10.8c-1.2-1.2-2.3-2.4-3.5-3.5c-0.7-0.7-1.5-1.3-2.4-1.8c-12.2-6.8-24.4-13.7-36.6-20.5
			c-5.7-3.2-11.5-6.4-17.2-9.6c-0.5-0.3-1-0.6-1.5-1c-2.2-1.9-2.5-5.6-0.3-7.7c3.1-3.2,6.3-6.4,9.6-9.5c2-1.9,4.5-2.1,7.1-1.4
			c6.7,2,13.4,4,20.2,6.1c1.4,0.4,2.9,0.8,4.3,1.3c0.7,0.2,1.2,0.1,1.7-0.4c1.8-1.8,3.6-3.6,5.4-5.4c0.7-0.7,1.6-1.4,2.6-1.6
			c2.2-0.6,4.2-0.2,5.8,1.4c1.6,1.5,3.3,3.1,4.8,4.8c1.7,1.9,2,4.1,1,6.5C192.4,139.3,192.3,139.6,192.1,139.9z"/>
		<g>
			<path class="st34" d="M136,294.1c-0.3,0.1-0.6,0.1-1.1,0.2c1.5-6.1-0.4-10.9-5.5-14.2c-5.1-3.4-10.3-2.6-15.1,1
				c-0.1-0.8-0.1-1.6-0.2-2.4c-0.2-1.8-0.6-3.6-1.5-5.2c-1.5-2.9-3.9-4.5-7.3-4.4c-1.4,0-2.7,0.4-4,0.9c-0.2,0.1-0.5,0.1-0.8,0.2
				c0.1-1.2,0.2-2.3,0.2-3.3c0-2-0.4-4-1.5-5.7c-1.2-2-3.1-3.1-5.4-3.2c-3.3-0.2-6,1.1-8.2,3.4c-1.2,1.2-2,2.7-2.6,4.3
				c-0.1,0.3-0.2,0.5-0.3,0.8c-0.8-0.6-1.5-1.2-2.3-1.7c-2.5-1.6-5.1-1.8-7.7-0.3c-3.2,1.8-4.9,4.6-5.3,8.2c-0.3,2.9,0.5,5.5,1.7,8
				c0.2,0.3,0.3,0.6,0.5,1c-4.6,1.8-6.8,5.3-7.2,10.1c-0.3,0-0.5,0.1-0.8,0.1c-1.2,0.1-2.3,0.5-3.3,1c-2.7,1.4-4.5,4.6-4.2,7.5
				c0.4,3.6,2.2,6.3,5.7,7.7c0.5,0.2,0.9,0.3,1.4,0.5c2.9,0.9,5.9,1.3,8.9,1.4c4.5,0.1,9,0.1,13.5,0.1c5,0,10-0.1,15-0.1
				c6.1,0,12.2-0.1,18.3-0.1c4.9,0,9.8,0.1,14.7,0.2c2.6,0,5.2,0.1,7.7,0c2-0.1,3.9-0.5,5.6-1.5c1.6-0.9,2.6-2.3,2.8-4.2
				C148.4,297.3,141.8,292.6,136,294.1z"/>
			<path class="st34" d="M258.5,109.3c-1.1-1.3-2.4-2.3-4-2.9c-0.3-0.1-0.6-0.3-0.9-0.4c0.5-1.9,0.8-3.8,0.2-5.7
				c-0.5-1.9-1.6-3.5-3.3-4.6c-3.4-2-6.6-1.5-9.8,0.9c-0.7-3.2-2.8-5.1-5.5-6.4c-2.7-1.3-5.6-1.5-8.6-0.6c-0.1-0.5-0.1-0.9-0.2-1.3
				c-0.4-1.5-0.7-3.1-1.2-4.5c-0.4-1-1-1.9-1.7-2.7c-1.2-1.4-2.8-1.9-4.7-1.7c-2.1,0.3-3.7,1.4-5,3c-1.5,1.8-2.3,3.9-2.6,6.2
				c-0.1,0.4,0,0.8-0.3,1.2c-1.9-0.8-2.9-0.9-4-0.8c-4.1,0.5-7.1,4.4-6.6,8.5c0.2,1.2,0.5,2.5,0.8,3.7c-0.8,0.3-1.8,0.5-2.6,0.9
				c-3.1,1.4-4.7,3.9-5,7.3c-0.1,1.3,0.3,2.5,0.6,3.7c1,3.6,3.2,6.1,6.8,7.1c3.3,0.9,6.6,1.4,10,1.6c2.3,0.1,4.6,0,6.9,0
				c3,0,5.9,0.1,8.9,0.1c2.6,0,5.2,0.1,7.7-0.1c4.1-0.2,8.2-0.6,12.3-0.9c1.8-0.1,3.6-0.3,5.3-0.6c1.8-0.3,3.6-0.8,5.2-1.9
				c1.3-0.8,2.1-2,2.4-3.5C260.4,112.7,259.8,110.9,258.5,109.3z"/>
			<path class="st34" d="M350.1,198c-0.3-2.5-0.8-5-2.1-7.2c-2.4-4.1-5.9-6.2-10.7-6.2c-0.8,0-1.7,0.2-2.6,0.3
				c0-0.4-0.1-0.8-0.1-1.2c-0.4-4-2.5-6.8-6.2-8.2c-2.3-0.9-4.4-0.6-6.4,0.9c-0.2,0.1-0.4,0.3-0.7,0.4c-0.1-0.4-0.1-0.7-0.2-1.1
				c-0.3-1.8-0.8-3.6-1.8-5.1c-2.5-3.8-7.1-4.4-10.6-1.5c-1.5,1.3-2.5,2.9-3.1,4.8c-0.7,2.2-1,4.5-0.8,6.9c-0.8,0.1-1.5,0.2-2.2,0.3
				c-5.6,1.1-10.1,5.8-11,11.4c-0.5,3.1,0.1,6,1.8,8.7c1.8,2.8,4.4,4.1,7.6,4.3c4.2,0.3,8.3,0.6,12.5,0.8c2.9,0.1,5.7,0.1,8.6,0.1
				c5.7-0.1,11.4-0.2,17.1-0.4c1.8-0.1,3.6-0.2,5.4-0.4c1.3-0.2,2.5-0.6,3.5-1.3c1.2-0.9,2-2.1,2-3.6
				C350.2,199.7,350.2,198.8,350.1,198z"/>
		</g>
	</g>
	<g>
		<path class="st58" d="M319.4,319.2c1,0.8,1.8,1.1,3.3,1c0.1-1.2,0.3-2.4,0.4-3.7c0.4-2.8,1-5.5,2.2-8.1c0.6-1.4,1.4-2.8,2.5-4
			c1.7-2,3.9-3.2,6.6-3.3c1.5-0.1,3,0.3,4.3,1.1c2.2,1.3,3.7,3.2,4.6,5.5c0.7,2,0.6,3.9-0.5,5.7c-1.8,3.1-4.6,4.8-8.1,5.3
			c-1.1,0.1-2.2,0.1-3.4,0.2c0,0.1-0.1,0.3-0.1,0.5c-0.5,4.9,0.2,9.6,2.4,14c0.6,1.1,1.2,2.3,1.9,3.3c0.6,0.7,1.3,1.3,2.1,1.9
			c1,0.7,2.2,0.7,3.2,0c0.7-0.5,1.3-1,1.9-1.7c1.2-1.3,2.1-2.9,2.9-4.5c1.5-3.4,2.8-6.9,3.9-10.5c0.1-0.4,0.1-0.9,0.1-1.3
			c-0.3-3.1-0.6-6.2-0.8-9.4c-0.3-3.8-0.2-7.5,0.1-11.3c0.4-6.2,1.3-12.4,3.1-18.4c0.7-2.2,1.5-4.3,2.5-6.3c1.1-2,2.5-3.8,4.4-5.1
			c0.8-0.5,1.6-1,2.4-1.3c2.5-0.9,4.9-0.2,6.6,1.9c1.3,1.7,2,3.6,2.3,5.7c0.5,3.1,0.3,6.2-0.2,9.3c-0.7,4.2-1.7,8.4-3.3,12.4
			c-1.5,3.8-3.6,7.3-6.4,10.3c-0.3,0.3-0.5,0.7-0.4,1.1c0.3,3.5,0.6,7.1,1,10.6c0.4,3.5,1.1,7,2.5,10.3c0.5,1.3,1.2,2.4,2.2,3.3
			c1.2,1.1,2.2,1.2,3.5,0.2c1.2-0.9,2.1-2.1,2.8-3.5c1.1-2.2,2-4.5,3-6.7c0.3-0.6,0.6-1.2,0.9-1.8c0.3-0.5,0.7-0.7,1.3-0.7
			c0.5,0.1,1,0.5,1,1.1c0.1,0.5,0.1,1.1-0.1,1.5c-0.7,2.3-1.4,4.6-2.3,6.9c-0.8,2.2-1.9,4.2-2.9,6.3c-0.8,1.6-1.8,3-3.1,4.2
			c-0.6,0.5-1.1,1-1.8,1.4c-2.3,1.3-4.6,1.4-6.9,0.2c-3.7-2-6.4-5-8-8.8c-0.8-1.9-1.3-4-2-6c-0.1-0.2-0.1-0.5-0.3-0.9
			c-0.2,0.5-0.3,0.8-0.3,1c-0.8,2.9-1.8,5.7-3.2,8.3c-0.9,1.8-2,3.5-3.5,4.9c-2.4,2.3-5.2,3.2-8.4,2.2c-4.9-1.4-8.3-4.6-10.4-9.3
			c-1.3-3.1-2-6.3-2.2-9.7c0-0.5,0-0.9-0.1-1.5c-1.4,0.3-2.8,0.2-4.1-0.5c-0.1,0.4-0.2,0.7-0.3,1c-2.2,6.8-4.4,13.5-6.6,20.3
			c-0.6,1.8-1.5,3.6-2.3,5.3c-0.3,0.6-0.6,1.2-1.1,1.8c-1.7,2.3-4.4,2.7-6.7,0.9c-1.5-1.1-2.6-2.5-3.3-4.2c-1-2.7-2.1-5.4-2.9-8.1
			c-1.6-5.1-2.7-10.4-3.7-15.7c-0.2-1-0.4-2-0.6-3.1c-0.1-0.2-0.1-0.5-0.3-0.7c-0.1,0.9-0.1,1.8-0.2,2.7c-0.3,3.3-0.6,6.6-1.1,9.8
			c-0.4,2.8-1.1,5.5-2.3,8c-0.4,0.8-0.9,1.6-1.4,2.3c-1.8,2.2-4.5,2.8-7.1,1.6c-1.5-0.7-2.7-1.8-3.7-3.1c-1.2-1.5-2.2-3.2-3-5.1
			c-0.1-0.3-0.2-0.5-0.4-1c-0.2,0.4-0.3,0.6-0.4,0.8c-0.6,1.1-1.1,2.3-1.9,3.3c-1.7,2.3-4.2,3-6.9,1.8c-1.5-0.6-2.8-1.6-4-2.8
			c-1.5-1.4-2.7-3-3.8-4.7c-0.2-0.3-0.4-0.5-0.6-0.9c-0.1,0.4-0.2,0.7-0.3,0.9c-0.8,3-1.6,5.9-2.4,8.9c-0.5,1.9-1.2,3.7-2.2,5.4
			c-0.5,0.8-1.1,1.7-1.8,2.3c-1.3,1.2-2.9,1.5-4.7,0.8c-1.6-0.6-2.8-1.7-3.7-3.1c-1.5-2-2.4-4.3-2.9-6.7c-0.5-2.4-0.7-4.9-0.6-7.4
			c0.1-4.4,0.2-8.9,0.4-13.3c0.2-5.5,0.4-11,0.7-16.4c0-0.8,0.1-1.5,0.2-2.5c-0.3,0.1-0.6,0.2-0.7,0.3c-0.7,0.6-1.4,1.1-1.9,1.8
			c-1.8,2.2-3.5,4.6-5.3,6.8c-0.3,0.3-0.2,0.7-0.1,1c0.6,3,0.8,6.1,0.7,9.2c-0.1,4.7-0.8,9.4-2.5,13.8c-0.6,1.6-1.5,3.1-2.5,4.5
			c-2.7,3.5-6.3,4.1-9.9,2.9c-2.3-0.7-4.1-2.1-5.8-3.7c-2.9-2.9-4.8-6.4-6.3-10.2c-1.4-3.7-2.2-7.6-2.7-11.6
			c-0.8-6.1-0.9-12.3-0.8-18.5c0.1-3,0.3-6.1,0.4-9.2c-0.2,0-0.5-0.1-0.7-0.1c-1.4,0.2-2.7,0.3-4.1,0.5c-0.4,0.1-0.8,0.1-1.3,0.1
			c-1.1,0-1.8-0.9-1.5-2c0.2-0.7,0.6-1.2,1.1-1.7c1.4-1.1,3.1-1.7,4.8-2c0.6-0.1,1.3-0.2,2-0.3c0.2-1.1,0.3-2.1,0.5-3.2
			c0.2-1.6,0.7-3.2,1.3-4.7c0.4-1,1.1-1.9,2.1-2.6c1.3-0.8,2.7-0.7,3.7,0.4c0.8,0.8,1.3,1.9,1.6,3c0.6,2.5,0.6,5,0.6,7.6
			c0,0.4,0,0.7,0,1.1c1.8,0.5,3.6,0.8,5.4,0.4c0.7-0.2,1.4-0.6,2.1-0.9c0.6-0.3,1.2-0.6,1.9-0.8c0.6-0.2,1.2,0,1.7,0.5
			c0.4,0.5,0.4,1.1-0.1,1.8c-0.4,0.5-0.9,1-1.4,1.4c-2.3,1.7-4.9,2.7-7.9,2.5c-0.2,0-0.3,0-0.5,0c-0.1,0-0.1,0-0.3,0.1
			c0,0.2-0.1,0.5-0.1,0.7c0,1.2,0,2.5-0.1,3.7c-0.1,5.1-0.2,10.2-0.2,15.3c0.1,5.9,0.5,11.7,2.2,17.3c0.5,1.6,1.1,3.2,1.8,4.6
			c0.5,1.1,1.3,2.1,2.1,3.1c0.6,0.7,1.3,1.2,2,1.6c1.5,0.9,3.2,0.5,4.3-0.9c1.3-1.6,2-3.4,2.5-5.4c1.3-4.6,1.7-9.3,1.5-14.1
			c0-0.8-0.2-1.6-0.3-2.3c0-0.1-0.1-0.2-0.2-0.4c-0.2,0.2-0.4,0.3-0.7,0.5c-0.8,0.5-1.6,1-2.5,1.4c-2.5,1.1-4.7,0.6-6.7-1.2
			c-1.5-1.3-2.3-3.1-2.6-5c-0.4-2.7,0.1-5.3,1.5-7.7c0.5-0.9,1.2-1.7,2.1-2.3c1.7-1.1,3.5-1.2,5.3-0.2c1.2,0.7,2.2,1.7,2.9,2.9
			c0.6,1.2,1.2,2.5,1.7,3.7c0.1,0.3,0.3,0.7,0.4,1.2c0.3-0.4,0.5-0.7,0.7-1c1.1-1.5,2.1-3.1,3.2-4.6c0.8-1,1.6-2,2.6-2.7
			c3.1-2.4,7.1-2,9.8,0.8c1.5,1.6,2.2,3.7,2.6,5.8c0.5,2.9,0.5,5.9,0.4,8.8c-0.2,5.2-0.5,10.4-0.7,15.7c-0.1,2.4-0.2,4.8-0.3,7.2
			c-0.1,1.8-0.1,3.5-0.1,5.3c0,0.8,0.1,1.7,0.2,2.5c0.1,0.5,0.2,0.9,0.4,1.6c0.3-0.4,0.6-0.6,0.7-0.9c0.6-1.3,1.4-2.5,1.8-3.9
			c1.2-3.8,2.3-7.6,3.5-11.4c0.2-0.5,0-0.9-0.1-1.3c-1.3-3.3-1.9-6.7-1.7-10.2c0.2-3.5,1.1-6.7,3.4-9.4c2.2-2.7,5-4.3,8.5-4.4
			c2.7-0.1,5.1,0.8,7.3,2.4c0.3,0.2,0.6,0.5,1,0.8c0.1-0.3,0.3-0.5,0.4-0.7c1.5-2.6,4.4-2.9,6.4-0.6c1.2,1.4,1.7,3,2,4.7
			c0.3,2,0.5,4,0.6,5.9c0.2,3.5,0.4,7.1,0.6,10.7c0.2,3.1,0.5,6.1,1.3,9.1c0.2,0.7,0.4,1.3,0.7,1.9c0.5,1,1,1,1.6,0.1
			c0.5-0.7,0.9-1.5,1.2-2.2c1-2.2,1.5-4.5,1.7-6.8c0.4-3.1,0.6-6.2,0.8-9.3c0.2-2.8,0.1-5.7,0.2-8.5c0-1.1,0.1-2.2,0.2-3.3
			c0.1-0.6,0.3-1.2,0.5-1.7c1-1.8,3-2.3,4.8-1.1c0.9,0.6,1.6,1.4,2.2,2.3c1.7,2.6,2.8,5.4,3.6,8.3c1.4,5.5,2.7,11,4.1,16.4
			c0.7,2.8,1.6,5.6,2.4,8.5c0.2,0.8,0.4,1.5,0.7,2.5c0.2-0.4,0.4-0.7,0.6-1c1-2.4,2.2-4.7,3.1-7.1c1.8-5,3.4-10,5.1-15
			c0.2-0.7,0.1-1.1-0.3-1.7c-3.4-4.2-5.2-8.9-5-14.4c0-1.5,0.3-3.1,0.9-4.5c0.3-0.7,0.7-1.4,1.2-2c1.1-1.3,2.9-1.6,4.5-0.8
			c1,0.5,1.7,1.2,2.3,2.1c1.1,1.7,1.7,3.5,1.9,5.5c0.4,3.7-0.1,7.2-0.9,10.8C319.9,317.3,319.6,318.2,319.4,319.2z M269.6,321
			c0-0.9,0-1.8,0-2.6c0-0.9,0-1.9,0.1-2.8c0.1-0.6-0.2-1.1-0.7-1.4c-0.6-0.3-1.2-0.6-1.7-0.9c-1.9-1.1-4.7,0.1-5.6,1.7
			c-0.6,1.2-1.1,2.4-1.3,3.8c-0.6,3.7-0.3,7.4,0.7,11c0.5,2,1.2,3.9,2.3,5.6c0.3,0.5,0.7,1,1.2,1.4c0.7,0.6,1.3,0.6,1.9,0
			c0.5-0.4,0.9-0.8,1.3-1.3c0.8-1.3,1.6-2.6,2.4-3.9c0.2-0.3,0.2-0.7,0.1-1C269.8,327.3,269.6,324.1,269.6,321z M359.2,304.6
			c0.1,0,0.2,0.1,0.2,0.1c0.1-0.1,0.2-0.3,0.4-0.4c1.2-1.6,2.2-3.4,3-5.3c1.4-3.2,2.3-6.4,3.2-9.7c1-3.5,1.3-7,1-10.6
			c-0.1-1.2-0.5-2.4-0.8-3.5c-0.1-0.3-0.4-0.7-0.7-0.7c-0.2,0-0.6,0.3-0.8,0.6c-0.2,0.3-0.4,0.7-0.6,1c-0.3,0.7-0.6,1.4-0.8,2.2
			c-0.9,3.5-1.7,7.1-2.5,10.7c-0.7,3.3-1.1,6.6-1.3,9.9C359.3,300.8,359.3,302.7,359.2,304.6z M331.6,316.3c2.9,0.2,5.4-0.4,7.5-2.5
			c1.4-1.4,1.5-3,0.3-4.6c-0.3-0.4-0.7-0.8-1.1-1.1c-1.5-1.1-2.4-1-3.6,0.4C332.9,310.8,332.1,313.4,331.6,316.3z M316.8,315.8
			c0.1,0,0.2,0,0.3,0c0.2-1.5,0.5-2.9,0.7-4.4c0.2-2.2,0.2-4.5-0.5-6.7c-0.1-0.3-0.3-0.7-0.5-1c-0.9,0.5-1.1,1.3-1.2,2
			c-0.3,2.9-0.3,5.7,0.6,8.5C316.3,314.7,316.6,315.2,316.8,315.8z M225,309.1c-0.2-0.7-0.4-1.4-0.7-2.1c-0.4-0.9-0.9-1.8-1.4-2.5
			c-0.7-0.9-1.6-0.7-2,0.3c-0.4,0.9-0.5,1.9-0.2,2.9C221.2,309.8,223,310.5,225,309.1z"/>
		<g>
			<path class="st50" d="M121,204.1c-0.1,0.1-0.2,0.3-0.2,0.4c-1.4,2.9-2.8,5.7-4.3,8.6c-1,1.9-2.1,3.7-3.6,5.3
				c-2.5,2.7-5.6,4.1-9.4,3.6c-2.1-0.3-4-1.1-5.7-2.3c-0.7-0.5-1.3-1-1.9-1.6c-0.2-0.2-0.4-0.3-0.7-0.6c-0.1,0.8-0.2,1.4-0.3,2.1
				c-0.5,2.8-1.1,5.6-2,8.3c-0.3,1-0.8,2-1.3,2.8c-1.8,2.8-4.6,3.8-7.8,2.9c-2.2-0.6-4-1.9-5.6-3.4c-2-1.9-3.5-4.1-4.8-6.4
				c-1.9-3.5-3.3-7.2-4.5-11c-0.1-0.3-0.2-0.6-0.3-0.9c0-0.1-0.1-0.1-0.2-0.2c-0.2,0.2-0.4,0.5-0.6,0.7c-2.5,2.9-5.3,5.7-8.4,8
				c-0.8,0.6-1.6,1.1-2.5,1.6c-0.4,0.2-0.9,0.4-1.4,0.4c-1.2,0.1-1.9-0.9-1.4-2c0.2-0.4,0.5-0.8,0.9-1.2c0.6-0.6,1.3-1.1,1.9-1.7
				c3.7-2.8,6.9-6,9.9-9.6c0.5-0.5,0.6-1,0.4-1.8c-1.4-6.5-2.3-13-2.5-19.7c-0.2-6.9,0.7-13.6,2.8-20.2c0.7-2.2,1.7-4.4,3.1-6.3
				c0.9-1.3,2-2.5,3.3-3.3c3.1-2.1,6.6-1.6,9,1.3c1.5,1.8,2.2,4,2.7,6.3c0.7,3.4,0.6,6.9,0.1,10.3c-0.9,6.7-3.2,13-6.1,19
				c-0.5,1.1-1,2.2-1.6,3.2c-0.2,0.5-0.3,0.9-0.3,1.4c1,7.3,2.8,14.3,5.6,21.1c0.8,1.9,1.8,3.7,2.8,5.5c0.3,0.6,0.8,1,1.3,1.4
				c0.5,0.4,0.8,0.3,1.3-0.1c0.4-0.4,0.7-0.8,0.9-1.2c1-1.6,1.4-3.4,1.9-5.1c0.5-1.8,0.9-3.6,1.3-5.4c0.1-0.3,0-0.8-0.2-1.1
				c-2.2-6-2.5-12.2-0.9-18.4c0.7-2.8,1.9-5.3,3.8-7.5c1.8-2.1,4-3.7,6.7-4.3c4.5-1,9,1.8,9.9,6.2c0.3,1.8,0,3.5-0.7,5.1
				c-1.6,3.5-4.3,5.9-7.7,7.6c-0.3,0.2-0.7,0.3-1.1,0.5c0,0.2,0,0.5,0,0.7c0.2,3.7,0.9,7.2,2.3,10.7c0.2,0.6,0.5,1.2,0.9,1.7
				c0.9,1.4,2.3,1.7,3.7,0.9c1.1-0.6,1.9-1.4,2.7-2.3c2-2.3,3.6-5,4.9-7.8c1.1-2.4,2.1-4.8,3.2-7.3c0.1-0.3,0.2-0.6,0.2-0.9
				c-0.3-4.7-0.4-9.4-0.3-14.1c0-0.1,0-0.1-0.1-0.3c-0.2,0-0.5-0.1-0.7-0.1c-1.2,0-2.5,0-3.7-0.1c-0.5,0-1,0-1.5-0.1
				c-1.2-0.3-1.6-1.4-0.9-2.4c0.5-0.7,1.1-1.1,1.9-1.4c1.4-0.6,2.8-0.7,4.3-0.8c0.3,0,0.5,0,0.8,0c0.1-1.2,0.2-2.3,0.4-3.4
				c0.2-1.1,0.6-2.1,1-3.2c0.3-0.9,1-1.5,1.7-2.1c1.6-1.2,3.5-1,4.9,0.4c0.8,0.8,1.2,1.8,1.4,2.9c0.3,1.7,0.6,3.4,0.8,5.1
				c0.1,1,0.1,2,0.2,3c0.9,0.4,1.8,0.6,2.8,0.6c1.2,0,2.3-0.1,3.5-0.1c0.9,0,1.4,0.2,1.6,0.9c0.2,0.7-0.1,1.4-0.9,1.8
				c-1.2,0.5-2.5,0.9-3.7,1.2c-0.9,0.2-1.9,0.2-3,0.3c0,0.2,0,0.5,0,0.8c0.2,3.3,0.5,6.6,0.7,10c0.4,6,1,12,2.5,17.9
				c0.3,1.2,0.7,2.4,1.2,3.6c0.2,0.5,0.4,0.9,0.7,1.3c0.7,1.1,1.6,1.3,2.6,0.4c0.5-0.5,1.1-1.1,1.4-1.7c0.8-1.5,1.5-3.1,2.2-4.7
				c1.3-3.1,2.5-6.2,3.7-9.4c0.2-0.5,0.4-1,0.7-1.5c0.4-0.6,1-0.8,1.6-0.6c0.6,0.3,0.9,1,0.6,1.7c-1.7,3.8-2.6,7.8-4,11.7
				c-0.7,1.9-1.4,3.9-2.5,5.6c-0.7,1.1-1.4,2.1-2.3,3c-2.2,2.3-5.2,2.7-8.1,1.2c-1.3-0.7-2.4-1.6-3.4-2.6c-3.1-3-4.9-6.6-6-10.7
				c-0.7-2.5-1.1-5.1-1.6-7.7c0-0.1-0.1-0.3-0.1-0.4C121.2,204.1,121.1,204.1,121,204.1z M76.9,191.8c0.2-0.2,0.3-0.2,0.3-0.3
				c0.1-0.2,0.3-0.5,0.4-0.7c2.3-5.2,4.2-10.5,5.1-16.2c0.4-2.6,0.5-5.1,0.2-7.7c-0.2-1.3-0.4-2.6-0.7-3.8c-0.2-1-0.8-1.9-1.5-2.7
				c-0.9-1-2.1-1.1-3.1-0.2c-0.6,0.5-0.9,1.1-1.1,1.8c-0.2,1.2-0.5,2.5-0.5,3.8c0,4.6,0,9.3,0.1,13.9c0.1,3.3,0.4,6.5,0.6,9.8
				C76.7,190.2,76.8,190.9,76.9,191.8z M102.7,199.3c0.9-0.7,1.6-1.2,2.3-1.8c1.9-1.6,3.3-3.6,3.8-6.1c0.2-0.9,0.1-1.8-0.3-2.7
				c-0.5-1.2-1.4-1.4-2.5-0.7c-0.9,0.6-1.5,1.5-1.9,2.5C103,193.3,103,196.2,102.7,199.3z"/>
			<path class="st50" d="M166.3,204.7c4.2-1.6,7.4-4.3,10-7.8c0.3-0.4,0.5-0.8,0.8-1.1c0.5-0.6,1.3-0.8,1.8-0.4
				c0.6,0.4,0.7,1,0.4,1.7c-1.6,3.5-3.8,6.5-7.4,8.1c-1.2,0.6-2.4,1.3-3.6,2c0.7,1.4,1.4,2.7,2,4c1.1,2.3,1.6,4.7,1.3,7.3
				c-0.5,3.9-3.5,7.5-8.5,7.4c-5.1,0-9.9-5.1-7.6-11.2c0.6-1.5,1.5-2.8,2.6-4c0.3-0.3,0.7-0.6,1.1-0.9c-0.3-0.3-0.4-0.6-0.6-0.8
				c-1.3-1.6-2.6-3.2-3.8-4.8c-1.6-2.2-2.9-4.7-3.4-7.4c-0.6-3.2,0.1-6,2.6-8.2c2.3-2.1,5-2.5,7.8-1.3c1.8,0.8,3.2,1.9,4.2,3.6
				c0.5,1,0.8,2,0.6,3.1c0,0.2-0.1,0.4-0.2,0.6c-0.2,0.5-0.5,0.9-1,0.9c-0.5,0-0.8-0.3-1.1-0.7c-0.5-1-1.3-1.6-2.3-2
				c-1.3-0.5-1.7-0.3-1.7,1.1c0,1.6,0.6,3.1,1.4,4.4c0.5,0.9,1.2,1.7,1.8,2.6C164.5,202.2,165.4,203.5,166.3,204.7z M161.5,212.6
				c-0.6,0.8-1.1,1.5-1.5,2.3c-0.5,0.8-0.7,1.7-0.6,2.6c0.1,1.1,0.5,1.9,1.5,2.5c0.9,0.5,1.7,0.2,2.1-0.7c0.5-1.1,0.7-2.3,0.3-3.5
				C162.8,214.7,162.3,213.7,161.5,212.6z"/>
			<path class="st50" d="M150.3,175.4c0.1,1.5-0.6,2.9-1.1,4.5c-0.3,1-1.4,1.5-2.3,1.3c-0.9-0.2-1.7-1.2-1.5-2.1
				c0.3-1.7-0.1-3.3-0.6-4.9c-0.1-0.5-0.2-1.1-0.2-1.6c0-1.3,0.6-2.3,1.6-2.6c1-0.4,2.1,0,2.9,1.1
				C150.1,172.2,150.4,173.6,150.3,175.4z"/>
		</g>
	</g>
</g>
</svg>
